<?xml version="1.0" encoding="utf-8"?>
<!-- Generator: Adobe Illustrator 19.2.1, SVG Export Plug-In . SVG Version: 6.00 Build 0)  -->
<svg version="1.1" id="Layer_1" xmlns="http://www.w3.org/2000/svg" xmlns:xlink="http://www.w3.org/1999/xlink" x="0px" y="0px"
	 viewBox="0 0 35.2 35.2" style="enable-background:new 0 0 35.2 35.2;" xml:space="preserve">
<style type="text/css">
	.st0{fill:#53585F;}
</style>
<path class="st0" d="M33.5,15.9H19.4V1.7c0-1-0.8-1.8-1.7-1.7c-1,0-1.8,0.8-1.7,1.7v14.1H1.7c-1,0-1.8,0.8-1.7,1.7
	c0,1,0.8,1.8,1.7,1.7h14.1v14.1c0,1,0.8,1.8,1.7,1.7c0.9,0,1.8-0.8,1.7-1.7V19.4h14.1c1,0,1.8-0.8,1.7-1.7
	C35.3,16.7,34.5,15.9,33.5,15.9z"/>
</svg>
