<?xml version="1.0" encoding="utf-8"?>
<!-- Generator: Adobe Illustrator 19.2.1, SVG Export Plug-In . SVG Version: 6.00 Build 0)  -->
<svg version="1.1" id="Capa_1" xmlns="http://www.w3.org/2000/svg" xmlns:xlink="http://www.w3.org/1999/xlink" x="0px" y="0px"
	 viewBox="0 0 422.7 422.7" style="enable-background:new 0 0 422.7 422.7;" xml:space="preserve">
<style type="text/css">
	.st0{fill:#C9130F;}
</style>
<path class="st0" d="M232.3,216.2v70.4h44.2v-70.4c0-5.9,4.7-10.5,10.5-10.5s10.5,4.7,10.5,10.5v80.9c0,5.9-4.7,10.5-10.5,10.5l0,0
	h-65.2l0,0c-5.9,0-10.5-4.7-10.5-10.5v-80.9c0-5.9,4.7-10.5,10.5-10.5C227.6,205.7,232.3,210.4,232.3,216.2z M307.4,401.6h-20.5V331
	c0-5.9-4.7-10.5-10.5-10.5s-10.5,4.7-10.5,10.5v81.2c0,5.9,4.7,10.5,10.5,10.5c0,0,0,0,0.1,0h30.9c5.9,0,10.5-4.7,10.5-10.5
	S313.1,401.6,307.4,401.6z M232.4,320.5c-5.9,0-10.5,4.7-10.5,10.5v70.6h-20.5c-5.9,0-10.5,4.7-10.5,10.5s4.7,10.5,10.5,10.5h30.9
	c0,0,0,0,0.1,0c5.9,0,10.5-4.7,10.5-10.5V331C243,325.1,238.3,320.5,232.4,320.5z M210.4,77.9c0-24.2,19.7-43.9,43.9-43.9
	s43.9,19.7,43.9,43.9s-19.7,43.9-43.9,43.9C230.1,121.8,210.4,102.2,210.4,77.9z M231.5,77.9c0,12.6,10.3,22.8,22.8,22.8
	c12.5,0,22.8-10.3,22.8-22.8s-10.3-22.8-22.8-22.8S231.5,65.3,231.5,77.9z M152.5,100.8c-5.2,7.5-12.1,13.9-20,18.6
	c-14.7,8.7-32.1,11.2-48.6,7c-34.3-8.7-55.1-43.8-46.3-78.1C41.8,31.8,52.2,17.8,67,9l0,0c14.7-8.7,32.1-11.2,48.6-7
	c26.2,6.7,45.1,28.7,48,55.4l17,19.8c1.9,2.2,2.6,5.2,1.9,8.1c-0.7,2.9-2.8,5.1-5.5,6.2L152.5,100.8z M143.4,85.1l15.2-5.8L148,67
	c-1.2-1.5-2-3.4-2.1-5.4c-1.1-20.1-15.1-37.1-34.7-42.1c-11.9-3-24.3-1.3-35,5.1S58,41,54.9,52.9c-6.3,24.7,8.7,49.9,33.3,56.2
	c11.9,3,24.3,1.3,35-5.1c6.4-3.8,11.7-9,15.6-15.3C140,87,141.6,85.7,143.4,85.1z M99.3,29.3c-5,0-9,4-9,9v25.9c0,5,4,9,9,9s9-4,9-9
	V38.3C108.3,33.3,104.3,29.3,99.3,29.3z M99.3,81.1c-5,0-9,4.1-9,9s4,9,9,9s9-4,9-9l0,0C108.3,85.1,104.3,81.1,99.3,81.1z
	 M373.4,263.8L346,230.9L331.2,195c-1.2-2.8-2.2-5.5-3.3-8.3c-9.1-23-19.3-49-56-49.3h-0.1c-0.5,0-1.1,0-1.5,0.1
	c-0.5-0.1-0.9-0.1-1.5-0.1h-32.1c-0.1,0-0.2,0-0.4,0s-0.4,0-0.5,0h-0.1c-36.7,0.4-47,26.4-56,49.3c-1.1,2.7-2.2,5.5-3.3,8.3
	l-5.9,14.2l-22-51.9c-2.2-5.4-8.4-7.8-13.8-5.6c-5.4,2.2-7.8,8.4-5.6,13.8l31.9,74.8c1.6,3.9,5.5,6.4,9.7,6.4l0,0
	c4.2,0,8.1-2.6,9.7-6.4l15.5-37.2c1.2-2.9,2.3-5.9,3.5-8.7c9.6-24.1,15.1-35.7,36.7-36c0.1,0,0.2,0,0.4,0c0.1,0,0.2,0,0.5,0H269
	c0.5,0,1.1,0,1.5-0.1c0.5,0.1,0.9,0.1,1.4,0.1c21.5,0.2,27.1,11.8,36.7,36c1.1,2.8,2.2,5.7,3.5,8.7l15.5,37.2
	c0.4,0.9,0.9,1.9,1.6,2.7l28.3,34.1c2.1,2.5,5,3.7,8.1,3.7c2.3,0,4.8-0.8,6.8-2.5C376.6,274.9,377.2,268.2,373.4,263.8z"/>
</svg>
