<?xml version="1.0" encoding="utf-8"?>
<!-- Generator: Adobe Illustrator 19.2.1, SVG Export Plug-In . SVG Version: 6.00 Build 0)  -->
<svg version="1.1" id="Layer_1" xmlns="http://www.w3.org/2000/svg" xmlns:xlink="http://www.w3.org/1999/xlink" x="0px" y="0px"
	 viewBox="0 0 37 37" style="enable-background:new 0 0 37 37;" xml:space="preserve">
<style type="text/css">
	.st0{fill:#FFFFFF;}
</style>
<path class="st0" d="M32.7,0.8L18.5,15L4.3,0.8c-1-1-2.6-1-3.5,0c-1,1-1,2.6,0,3.5L15,18.5L0.8,32.7c-1,1-1,2.6,0,3.5
	c1,1,2.6,1,3.5,0L18.5,22l14.2,14.2c1,1,2.6,1,3.5,0s1-2.6,0-3.5L22,18.5L36.2,4.3c1-1,1-2.6,0-3.5C35.4-0.2,33.7-0.2,32.7,0.8z"/>
</svg>
