<?xml version="1.0" encoding="utf-8"?>
<!-- Generator: Adobe Illustrator 19.2.1, SVG Export Plug-In . SVG Version: 6.00 Build 0)  -->
<svg version="1.1" id="Capa_1" xmlns="http://www.w3.org/2000/svg" xmlns:xlink="http://www.w3.org/1999/xlink" x="0px" y="0px"
	 viewBox="0 0 284.2 284.2" style="enable-background:new 0 0 284.2 284.2;" xml:space="preserve">
<style type="text/css">
	.st0{fill:#C9130F;}
	.st1{fill:none;stroke:#C9130F;stroke-width:12;stroke-linecap:round;stroke-linejoin:round;stroke-miterlimit:10;}
</style>
<path class="st0" d="M198,55.9C198,25.1,172.9,0,142.1,0c-19,0-35.9,9.6-46,24.1c-0.3,0.4-0.6,0.8-0.8,1.2
	c-5.8,8.8-9.1,19.3-9.1,30.6c0,16.4,7.1,31.1,18.3,41.3c1.6-6.6,3.9-12.6,8.1-17.6c-5.2-6.5-8.4-14.8-8.4-23.7
	c0-3.5,0.5-6.9,1.4-10.1c5.2-19.2,25.8-27.9,36.6-27.9C163,18,180,35,180,55.9c0,19.9-15.3,36.2-34.8,37.8
	c2.2,6.1,1.6,13.4-2.1,18.1C173.5,111.3,198,86.4,198,55.9z"/>
<path class="st0" d="M188.8,201.4c-5,0-9,4-9,9v55.7h-75.4v-55.7c0-5-4-9-9-9s-9,4-9,9V275c0,0.1,0,0.1,0,0.2c0,2.9,1.4,5.5,3.5,7.2
	c1.6,1.2,3.5,1.9,5.6,1.8h93c0.1,0,0.1,0,0.2,0c5,0,9-4,9-9l0,0v-64.7C197.8,205.5,193.7,201.4,188.8,201.4z"/>
<path class="st0" d="M275.2,271.6l-28.9-66.9c-9-20.8-18.5-35.6-29.9-46.4c-15.1-14.3-33.6-21.6-55.2-21.6h-38.3
	c-21.6,0-40.2,7.3-55.2,21.6c-11.4,10.8-20.9,25.6-29.9,46.4L9,271.6c-2,4.6,0.1,9.9,4.7,11.8c4.6,2,9.9-0.1,11.8-4.7l28.9-66.9
	c17.3-40,37.8-57.1,68.6-57.1h38.3c30.8,0,51.3,17.1,68.6,57.1l28.9,66.9c1.5,3.4,4.8,5.4,8.3,5.4c1.2,0,2.4-0.2,3.6-0.7
	C275.1,281.4,277.2,276.1,275.2,271.6z"/>
<path class="st0" d="M114.7,29.8"/>
<path class="st0" d="M105.5,45.9"/>
<path class="st1" d="M124.8,48.6c0,0,5.9,19.3,10.4,26.9c4.5,7.6,9.5,17.1,9.7,21.7s-0.5,12.7-5.7,17.9c-5.2,5.2-9.7,6.9-14.5,6.9
	c-4.7,0-11.4-3.3-14.9-7.6s-5.7-10.6-5.7-15.3c0-4.6,5.2-15.8,8.5-20.8c3.3-5,5-9.3,6.6-13.4C121,60.8,124.8,48.6,124.8,48.6z"/>
</svg>
