<?xml version="1.0" encoding="utf-8"?>
<!-- Generator: Adobe Illustrator 19.2.1, SVG Export Plug-In . SVG Version: 6.00 Build 0)  -->
<svg version="1.1" id="Layer_1" xmlns="http://www.w3.org/2000/svg" xmlns:xlink="http://www.w3.org/1999/xlink" x="0px" y="0px"
	 viewBox="0 0 100 100" style="enable-background:new 0 0 100 100;" xml:space="preserve">
<style type="text/css">
	.st0{fill:#FFFFFF;}
</style>
<path class="st0" d="M50.1,5c-13,0-23.7,10.7-23.7,23.7c0,3.9,3.3,7.2,7.3,7.2c4.1,0,7.3-3.3,7.3-7.2c0-5,4.1-9.1,9.1-9.1
	c4.9,0,8.9,4.1,8.9,9.1c0,4.6-2,6.9-5.7,11.1C48.7,44.5,42.6,51,42.6,63.4c0,4.2,3.3,7.4,7.4,7.4c4,0,7.2-3.2,7.2-7.4
	c0-6.7,2.8-9.7,6.6-13.7c4.3-4.7,9.6-10.4,9.6-21.1C73.6,15.7,63.1,5,50.1,5L50.1,5z M50.1,77.4c-4.9,0-8.9,3.8-8.9,8.8
	c0,4.9,4,8.8,8.9,8.8c4.7,0,8.8-3.9,8.8-8.8C58.9,81.3,54.9,77.4,50.1,77.4z"/>
</svg>
