<?xml version="1.0" encoding="utf-8"?>
<!-- Generator: Adobe Illustrator 19.2.1, SVG Export Plug-In . SVG Version: 6.00 Build 0)  -->
<svg version="1.1" id="Capa_1" xmlns="http://www.w3.org/2000/svg" xmlns:xlink="http://www.w3.org/1999/xlink" x="0px" y="0px"
	 viewBox="0 0 366.7 366.7" style="enable-background:new 0 0 366.7 366.7;" xml:space="preserve">
<style type="text/css">
	.st0{fill:#C9130F;}
</style>
<path class="st0" d="M206.6,355.7V254.1l-63.3-0.2c-0.2,0-0.4,0-0.6,0c-0.2,0-0.4,0-0.6,0c-0.2,0-0.4-0.1-0.6-0.1
	c-0.2,0-0.4,0-0.5-0.1c-0.2,0-0.4-0.1-0.6-0.1c-0.2,0-0.3-0.1-0.5-0.1c-0.2-0.1-0.4-0.1-0.5-0.2c-0.2-0.1-0.3-0.1-0.5-0.2
	c-0.2-0.1-0.4-0.2-0.5-0.3s-0.3-0.1-0.4-0.2c-0.2-0.1-0.3-0.2-0.5-0.3c-0.1-0.1-0.3-0.2-0.4-0.2c-0.2-0.1-0.3-0.2-0.5-0.3
	c-0.1-0.1-0.3-0.2-0.4-0.3c-0.1-0.1-0.3-0.2-0.4-0.4c-0.1-0.1-0.3-0.2-0.4-0.3c-0.1-0.1-0.2-0.3-0.4-0.4c-0.1-0.1-0.2-0.3-0.4-0.4
	c-0.1-0.1-0.2-0.3-0.3-0.4c-0.1-0.1-0.2-0.3-0.3-0.4c-0.1-0.1-0.2-0.3-0.3-0.4c-0.1-0.2-0.2-0.3-0.3-0.5s-0.2-0.3-0.2-0.5
	c-0.1-0.2-0.2-0.3-0.2-0.5c-0.1-0.2-0.1-0.3-0.2-0.5c-0.1-0.2-0.1-0.3-0.2-0.5c-0.1-0.2-0.1-0.4-0.1-0.5c0-0.2-0.1-0.3-0.1-0.5
	s-0.1-0.4-0.1-0.6c0-0.2-0.1-0.3-0.1-0.5s0-0.4,0-0.6c0-0.2,0-0.3,0-0.5V136.3c0-6.1,4.9-11,11-11c37.4,0,59.3,30.2,77,58.5
	l53.8,86.3c3.2,5.2,1.6,11.9-3.5,15.1c-1.8,1.1-3.8,1.7-5.8,1.7c-3.7,0-7.3-1.8-9.3-5.2l-53.8-86.3c-15.9-25.5-29.4-42-47.3-46.7
	V232l63.3,0.2c6.1,0,11,4.9,11,11v101.5h18.7c6.1,0,11,4.9,11,11s-4.9,11-11,11h-29.6c0,0,0,0-0.1,0c-4.9,0-9.1-3.3-10.5-7.7
	C206.8,357.9,206.6,356.8,206.6,355.7L206.6,355.7z"/>
<path class="st0" d="M90.9,282.4L90.9,282.4v73.3c0,6.1,4.9,11,11,11s11-4.9,11-11v-62.2h50.7v62.2c0,6.1,4.9,11,11,11s11-4.9,11-11
	v-73.2c0-6.1-4.9-11-11-11h-61.7V115.1c0-6.1-4.9-11-11-11s-11,4.9-11,11C90.9,115.1,90.9,282.4,90.9,282.4z"/>
<path class="st0" d="M152.9,107.7c-25.3,0-45.9-20.6-45.9-45.9S127.6,16,152.9,16s45.9,20.6,45.9,45.9S178.2,107.7,152.9,107.7z
	 M152.9,38C139.7,38,129,48.7,129,61.9s10.7,23.9,23.9,23.9s23.9-10.7,23.9-23.9S166,38,152.9,38z"/>
</svg>
