<?xml version="1.0" encoding="utf-8"?>
<!-- Generator: Adobe Illustrator 19.2.1, SVG Export Plug-In . SVG Version: 6.00 Build 0)  -->
<svg version="1.1" id="Capa_1" xmlns="http://www.w3.org/2000/svg" xmlns:xlink="http://www.w3.org/1999/xlink" x="0px" y="0px"
	 viewBox="0 0 350 350" style="enable-background:new 0 0 350 350;" xml:space="preserve">
<style type="text/css">
	.st0{fill:#C9130F;}
</style>
<path class="st0" d="M67.3,273.4l-31.3,38.7l4.4,18.7c1.2,4.8-1.8,9.7-6.7,10.8c-0.7,0.2-1.4,0.2-2.1,0.2c-4.1,0-7.8-2.8-8.7-6.9
	l-5.4-22.8c-0.1-0.2-0.1-0.5-0.2-0.7c-0.2-1.3-0.1-2.5,0.1-3.7c0.2-0.9,0.6-1.8,1.2-2.7c0.2-0.3,0.4-0.6,0.7-0.9l34-42
	c3.1-3.9,8.8-4.5,12.7-1.3C69.8,263.9,70.4,269.5,67.3,273.4z M175.2,37.5C175.2,16.8,192,0,212.7,0s37.5,16.8,37.5,37.5
	s-16.8,37.5-37.5,37.5S175.2,58.2,175.2,37.5z M193.2,37.5c0,10.8,8.8,19.5,19.5,19.5s19.5-8.8,19.5-19.5S223.5,18,212.7,18
	C201.9,18,193.2,26.8,193.2,37.5z M151.3,75.1c5.3,0,10.4-1.1,15.2-3.2c4.5-2,6.6-7.3,4.6-11.9c-2-4.5-7.3-6.6-11.9-4.6
	c-2.5,1.1-5.1,1.7-7.9,1.7c-10.8,0-19.5-8.8-19.5-19.5S140.5,18,151.3,18c2.5,0,4.9,0.5,7.2,1.4c4.6,1.8,9.9-0.4,11.7-5
	s-0.4-9.9-5-11.7c-4.4-1.8-9.1-2.7-13.9-2.7c-20.7,0-37.5,16.8-37.5,37.5S130.6,75.1,151.3,75.1z M144.1,236.4l-15.9-76.1l3.3-22.3
	c0.7-4.9-2.7-9.5-7.6-10.2c-4.9-0.7-9.5,2.7-10.2,7.6l-3.5,23.8c-0.2,1-0.1,2.1,0.1,3.1l14,67h-18.7c-0.1,0-0.2,0-0.3,0H77.7
	c-5,0-9,4-9,9s4,9,9,9h17.4l-13.5,92c-0.1,0.5-0.1,1-0.1,1.6c0,2.1,0.7,4.1,2,5.6c1.4,1.7,3.4,3,5.7,3.3c0.4,0.1,0.9,0.1,1.3,0.1
	c0.1,0,0.2,0,0.3,0h24c5,0,9-4,9-9s-4-9-9-9h-13.9l12.4-84.6h21.8c0.7,0,1.4,0,2.1-0.2c2.5-0.5,4.6-2.1,5.8-4.1
	c0.4-0.7,0.7-1.4,1-2.1c0.3-1.1,0.4-2.2,0.3-3.4C144.3,237.2,144.2,236.8,144.1,236.4z M252.4,136.4c-0.2-5-4.3-8.8-9.3-8.6
	c-5,0.2-8.8,4.4-8.6,9.3l7.7,194.9h-15c-5,0-9,4-9,9s4,9,9,9h24.1c0.1,0,0.2,0,0.2,0c0.1,0,0.2,0,0.4,0c4.9-0.2,8.7-4.2,8.6-9.1
	c0-0.1,0-0.2,0-0.4L252.4,136.4z M332.7,339.4c-0.2-0.8-0.4-1.6-0.8-2.4L287.6,242c-2.1-4.5-7.5-6.5-12-4.4c-4.5,2.1-6.5,7.5-4.4,12
	l38.4,82.5h-10.2c-5,0-9,4-9,9s4,9,9,9h24c0.1,0,0.2,0,0.3,0c1.3,0,2.6-0.3,3.8-0.8c1.9-0.9,3.3-2.3,4.2-4c0.5-0.9,0.8-1.8,0.9-2.8
	C332.9,341.5,332.9,340.4,332.7,339.4z M293.7,203.2c1.4,4.8,6.4,7.5,11.2,6.1c4.8-1.4,7.5-6.4,6.1-11.2l-21.8-74.5
	c-3.4-11.6-8.6-20.3-15.9-26.7c-12.5-10.8-30.7-15-46.5-10.7c-14.2,3.9-24.6,13.8-29.2,27.9c-1.3,4-2,8.2-2.7,12.3
	c-1,6.3-2.1,12.8-5.2,15.5l-12,10.7l-3.8-7.9c-2.8-5.8-4.8-12.9-6.7-19.7c-1-3.6-2.1-7.4-3.3-10.9c-4.7-14.1-15.1-24-29.2-27.9
	C118.8,82,100.5,86.2,88,97c-8,7-21.4,35.2-43.3,84.8c-3,6.7-5.3,12-6.7,15.1c-2.1,4.5-0.1,9.9,4.4,12c4.5,2.1,9.9,0.1,12-4.4
	c1.5-3.2,3.9-8.6,6.9-15.4c8.7-19.7,31.9-72.2,38.7-78.5c7.9-6.9,20-9.7,30-6.9c5.8,1.6,13.4,5.7,16.9,16.2c1,3.2,2,6.6,3,10.1
	c2.1,7.6,4.3,15.4,7.9,22.7l34,70.3c1.6,3.2,4.8,5.1,8.1,5.1c1.3,0,2.7-0.3,3.9-0.9c4.5-2.2,6.3-7.5,4.2-12l-22-45.5l15.8-14.1
	c7.8-7,9.5-17.1,11-26.1c0.6-3.6,1.1-6.9,2-9.6c3.5-10.5,11.1-14.6,16.9-16.2c10-2.7,22.1,0,30,6.9c4.6,4,8,9.9,10.4,18.1
	L293.7,203.2z"/>
</svg>
