<?xml version="1.0" encoding="iso-8859-1"?>
<!-- Generator: Adobe Illustrator 17.1.0, SVG Export Plug-In . SVG Version: 6.00 Build 0)  -->
<!DOCTYPE svg PUBLIC "-//W3C//DTD SVG 1.1//EN" "http://www.w3.org/Graphics/SVG/1.1/DTD/svg11.dtd">
<svg xmlns="http://www.w3.org/2000/svg" xmlns:xlink="http://www.w3.org/1999/xlink" version="1.1" id="Capa_1" x="0px" y="0px" viewBox="0 0 373.086 373.086" style="enable-background:new 0 0 373.086 373.086;" xml:space="preserve" width="512px" height="512px">
<path d="M100.834,174.206l26.57-62.251c7.147-16.741,20.002-38.998,48.993-38.998h20.291c28.995,0,41.848,22.257,48.993,38.998  l26.572,62.251c1.951,4.571-0.173,9.859-4.744,11.811c-4.568,1.954-9.859-0.172-11.811-4.744l-26.572-62.251  c-8.508-19.934-17.906-28.064-32.438-28.064h-20.291c-14.53,0-23.928,8.131-32.438,28.065l-26.57,62.25  c-1.459,3.419-4.785,5.469-8.281,5.469c-1.179,0-2.377-0.232-3.529-0.725C101.007,184.065,98.883,178.777,100.834,174.206z   M156.54,31.037c0-16.544,13.46-30.004,30.004-30.004c16.543,0,30.002,13.46,30.002,30.004s-13.459,30.004-30.002,30.004  C170,61.041,156.54,47.581,156.54,31.037z M174.54,31.037c0,6.619,5.385,12.004,12.004,12.004c6.618,0,12.002-5.385,12.002-12.004  s-5.384-12.004-12.002-12.004C179.925,19.033,174.54,24.418,174.54,31.037z M373.086,363.053c0,4.971-4.029,9-9,9H9  c-4.971,0-9-4.029-9-9s4.029-9,9-9h37.749v-59.363c0-4.971,4.029-9,9-9h78.196v-16.124c0-4.971,4.029-9,9-9h18.465v-50.867  c0-4.971,4.029-9,9-9s9,4.029,9,9v50.867h14.265v-50.867c0-4.971,4.029-9,9-9s9,4.029,9,9v50.867h18.467c4.971,0,9,4.029,9,9v43.95  h78.195c4.971,0,9,4.029,9,9v31.537h37.749C369.057,354.053,373.086,358.082,373.086,363.053z M133.945,303.689H64.749v50.363  h69.196V303.689z M221.142,278.565h-69.196v75.487h69.196V278.565z M308.337,331.516h-69.195v22.537h69.195V331.516z   M186.544,340.276c4.971,0,9-4.029,9-9v-29.934c0-4.971-4.029-9-9-9s-9,4.029-9,9v29.934  C177.544,336.247,181.573,340.276,186.544,340.276z M164.531,126.509c-4.971,0-9,4.029-9,9v42.229c0,0,0,0,0,0.001  c0,5.016,4.107,9.083,9.135,8.999h43.755c0.045,0.001,0.09,0.001,0.135,0.001c4.971,0,9-4.029,9-9v-42.23c0-4.971-4.029-9-9-9  s-9,4.029-9,9v33.229h-26.024v-33.229C173.531,130.538,169.502,126.509,164.531,126.509z" fill="#FFFFFF"/>
<g>
</g>
<g>
</g>
<g>
</g>
<g>
</g>
<g>
</g>
<g>
</g>
<g>
</g>
<g>
</g>
<g>
</g>
<g>
</g>
<g>
</g>
<g>
</g>
<g>
</g>
<g>
</g>
<g>
</g>
</svg>
