<?xml version="1.0" encoding="utf-8"?>
<!-- Generator: Adobe Illustrator 19.2.1, SVG Export Plug-In . SVG Version: 6.00 Build 0)  -->
<svg version="1.1" id="Capa_1" xmlns="http://www.w3.org/2000/svg" xmlns:xlink="http://www.w3.org/1999/xlink" x="0px" y="0px"
	 viewBox="0 0 338 338" style="enable-background:new 0 0 338 338;" xml:space="preserve">
<style type="text/css">
	.st0{fill:#FFFFFF;}
</style>
<path class="st0" d="M324.1,239.8c-0.6,0.1-1.2,0.2-1.8,0.2c-4.2,0-7.9-2.9-8.8-7.2l-17.2-83.6c-1.8-8.5-9.4-36.4-34.8-36.4
	c-16.7,0-25.6,13.9-35.2,38l-28.4,70.6c-1.9,4.6-7.1,6.8-11.7,5c-4.6-1.9-6.8-7.1-5-11.7l28.4-70.6c7.4-18.4,19.8-49.2,52-49.2
	c25.9,0,46,19.5,52.4,50.8l17.2,83.6C332.1,234.1,329,238.8,324.1,239.8z M226.8,40.6c0-20.7,16.8-37.5,37.5-37.5
	c20.7,0,37.5,16.8,37.5,37.5c0,20.7-16.8,37.5-37.5,37.5C243.6,78.2,226.8,61.3,226.8,40.6z M244.8,40.6c0,10.8,8.8,19.5,19.5,19.5
	c10.8,0,19.5-8.8,19.5-19.5s-8.8-19.5-19.5-19.5C253.6,21.1,244.8,29.9,244.8,40.6z M275.9,152.4c0-5-4-9-9-9s-9,4-9,9V320h-15.3
	c-5,0-9,4-9,9s4,9,9,9h24.1c0.1,0,0.1,0,0.2,0c2.8,0,5.3-1.3,6.9-3.3c1.3-1.6,2.1-3.6,2.1-5.7c0-0.1,0-0.1,0-0.2L275.9,152.4
	L275.9,152.4z M36.2,40.6C36.2,19.9,53,3.1,73.7,3.1c20.7,0,37.5,16.8,37.5,37.5c0,20.7-16.8,37.5-37.5,37.5
	C53,78.2,36.2,61.3,36.2,40.6z M54.2,40.6c0,10.8,8.8,19.5,19.5,19.5c10.8,0,19.5-8.8,19.5-19.5s-8.8-19.5-19.5-19.5
	C62.9,21.1,54.2,29.9,54.2,40.6z M107.9,243.1l-25.7-76.2v-22.4c0-5-4-9-9-9s-9,4-9,9v23.8c0,1,0.2,1.9,0.5,2.9l22.2,66H71.2
	c-5,0-9,4-9,9c0,0.1,0,0.2,0,0.2v82.3c0,0.1,0,0.2,0,0.2c0,3,1.5,5.7,3.8,7.3c1.5,1.1,3.3,1.7,5.2,1.7c0.1,0,0.1,0,0.2,0h24.1
	c5,0,9-4,9-9s-4-9-9-9H80.2v-64.8h19c0.7,0,1.5-0.1,2.3-0.2c0.6-0.1,1.2-0.4,1.8-0.6c1.6-0.7,2.8-1.9,3.7-3.3c0.6-0.9,1-2,1.3-3.1
	c0.2-1,0.2-2.1,0.1-3.1C108.3,244.2,108.1,243.7,107.9,243.1z M185.1,28.2C185.1,28.2,185.1,28.2,185.1,28.2c1.3,0,2.6-0.3,3.9-0.9
	c0.9-0.4,1.8-1,2.5-1.8c0.1-0.1,0.3-0.3,0.4-0.5l9-10.1c3.3-3.7,3-9.4-0.7-12.7s-9.4-3-12.7,0.7l-2.3,2.6L182.7,3
	c-3.3-3.7-9-4-12.7-0.7s-4,9-0.7,12.7l9,10.1c0.1,0.2,0.3,0.3,0.4,0.5c0.8,0.8,1.6,1.4,2.5,1.8C182.4,27.9,183.7,28.2,185.1,28.2z
	 M168,61c-3.7-3.3-9.4-3-12.7,0.7l-2.3,2.6l-2.3-2.6c-3.3-3.7-9-4-12.7-0.7c-3.7,3.3-4,9-0.7,12.7l9,10.1c0.1,0.2,0.3,0.3,0.4,0.5
	c0.7,0.7,1.6,1.3,2.4,1.7c1.2,0.6,2.6,0.9,3.9,0.9c0,0,0,0,0,0c0,0,0,0,0,0c0,0,0,0,0,0c1.3,0,2.7-0.3,3.9-0.9
	c0.9-0.4,1.7-1,2.4-1.7c0.2-0.2,0.3-0.3,0.4-0.5l9-10.1C172.1,70,171.7,64.3,168,61z M128.4,144c-7.4-18.4-19.8-49.2-51.9-49.2
	c-25.9,0-46,19.5-52.4,50.8L6.9,229.2c-1,4.9,2.1,9.6,7,10.6c0.6,0.1,1.2,0.2,1.8,0.2c4.2,0,7.9-2.9,8.8-7.2l17.2-83.6
	c1.8-8.5,9.4-36.4,34.8-36.4c16.7,0,25.6,13.9,35.2,38l28.4,70.6c1.9,4.6,7.1,6.8,11.7,5c4.6-1.9,6.8-7.1,5-11.7L128.4,144z"/>
</svg>
