<?xml version="1.0" encoding="utf-8"?>
<!-- Generator: Adobe Illustrator 19.2.1, SVG Export Plug-In . SVG Version: 6.00 Build 0)  -->
<svg version="1.1" id="Layer_1" xmlns="http://www.w3.org/2000/svg" xmlns:xlink="http://www.w3.org/1999/xlink" x="0px" y="0px"
	 viewBox="0 0 32.1 32.1" style="enable-background:new 0 0 32.1 32.1;" xml:space="preserve">
<style type="text/css">
	.st0{fill:#FFFFFF;}
</style>
<path class="st0" d="M17.5,32c5.1-0.7,9.1-5.1,9.1-10.4V10.6c0,0,0-0.1,0-0.1C26.5,4.7,21.8,0,16.1,0C10.3,0,5.6,4.7,5.6,10.4
	c0,0,0,0.1,0,0.1v0c0,0,0,0,0,0c0,0,0,0.1,0,0.1v11c0,5.3,4,9.7,9.1,10.4C15.6,32.1,16.5,32.1,17.5,32z M16.1,2.8
	c4.2,0,7.6,3.4,7.7,7.6c0,0,0,0,0,0v0c-0.8-3-3.5-5.2-6.7-5.2c-3.2,0-5.8,2.6-5.8,5.8c0,2.7,2.2,5,5,5c0.8,0,1.4-0.6,1.4-1.4
	s-0.6-1.4-1.4-1.4c-1.2,0-2.1-1-2.1-2.1c0-1.7,1.3-3,3-3c2.3,0,4.1,1.8,4.1,4.1c0,3-2.5,5.5-5.5,5.5c-3,0-5.5-1.8-6.6-4.4
	c-0.4-0.9-0.6-1.9-0.6-2.9C8.4,6.3,11.8,2.8,16.1,2.8z M8.4,21.6v-4c1.9,2.1,4.6,3.3,7.7,3.3c3,0,5.7-1.3,7.6-3.3v4
	c0,4.2-3.4,7.7-7.7,7.7C11.8,29.3,8.4,25.8,8.4,21.6z"/>
</svg>
