<?xml version="1.0" encoding="utf-8"?>
<!-- Generator: Adobe Illustrator 19.2.1, SVG Export Plug-In . SVG Version: 6.00 Build 0)  -->
<svg version="1.1" id="Layer_1" xmlns="http://www.w3.org/2000/svg" xmlns:xlink="http://www.w3.org/1999/xlink" x="0px" y="0px"
	 viewBox="0 0 84.4 84.4" style="enable-background:new 0 0 84.4 84.4;" xml:space="preserve">
<style type="text/css">
	.st0{fill:#C9130F;}
</style>
<path class="st0" d="M40.4,82.6c0,1,0.8,1.8,1.8,1.8c1,0,1.8-0.8,1.8-1.8V67.8C55.7,66.8,64.9,57,64.9,45.1v-1.8h-1.8v0
	c-8,0-15,4.2-19.1,10.5V40.5c6.5-0.9,11.5-6.4,11.5-13.2v-14c0,0,0-0.1,0-0.1C55.5,6,49.5,0,42.2,0C34.9,0,29,5.9,28.9,13.2
	c0,0,0,0.1,0,0.1v0c0,0,0,0,0,0c0,0,0,0.1,0,0.1v13.9c0,6.7,5,12.3,11.5,13.2v13.3c-4-6.3-11.1-10.5-19.1-10.5h-1.8v1.8
	c0,11.9,9.2,21.7,20.9,22.6L40.4,82.6z M42.2,3.6c5.3,0,9.7,4.3,9.7,9.7c0,0,0,0,0,0v0c-1-3.8-4.4-6.5-8.5-6.5
	c-4.1,0-7.4,3.3-7.4,7.4c0,3.5,2.8,6.3,6.3,6.3c1,0,1.8-0.8,1.8-1.8c0-1-0.8-1.8-1.8-1.8c-1.5,0-2.7-1.2-2.7-2.7
	c0-2.1,1.7-3.8,3.8-3.8c2.9,0,5.2,2.3,5.2,5.2c0,3.8-3.1,7-7,7c-3.8,0-7-2.3-8.4-5.6c-0.5-1.1-0.7-2.4-0.7-3.7
	C32.5,7.9,36.8,3.6,42.2,3.6z M32.5,27.4v-5c2.4,2.6,5.9,4.2,9.7,4.2c3.8,0,7.3-1.6,9.7-4.2v5c0,5.3-4.3,9.7-9.7,9.7
	S32.5,32.7,32.5,27.4z M23.2,47c7.9,0.8,14.4,6.4,16.5,13.8L32.9,54c-0.7-0.7-1.8-0.7-2.5,0c-0.7,0.7-0.7,1.8,0,2.5l7.1,7.1
	C29.8,61.7,24,55.1,23.2,47z M47.5,63.5l6.8-6.8c0.7-0.7,0.7-1.8,0-2.5c-0.7-0.7-1.8-0.7-2.5,0l-7.1,7.1c2-7.7,8.6-13.5,16.6-14.3
	C60.4,54.9,54.9,61.4,47.5,63.5z"/>
</svg>
