<?xml version="1.0" encoding="utf-8"?>
<!-- Generator: Adobe Illustrator 19.2.1, SVG Export Plug-In . SVG Version: 6.00 Build 0)  -->
<svg version="1.1" id="Capa_1" xmlns="http://www.w3.org/2000/svg" xmlns:xlink="http://www.w3.org/1999/xlink" x="0px" y="0px"
	 viewBox="0 0 334.9 334.9" style="enable-background:new 0 0 334.9 334.9;" xml:space="preserve">
<style type="text/css">
	.st0{fill:#C9130F;}
</style>
<path class="st0" d="M102.8,75.1c20.7,0,37.5-16.8,37.5-37.5S123.5,0,102.8,0C82.1,0,65.3,16.8,65.3,37.5S82.1,75.1,102.8,75.1z
	 M102.8,18c10.8,0,19.5,8.8,19.5,19.5s-8.8,19.5-19.5,19.5c-10.8,0-19.5-8.8-19.5-19.5C83.3,26.8,92,18,102.8,18z M218.4,75.1
	c20.7,0,37.5-16.8,37.5-37.5S239.1,0,218.4,0s-37.5,16.8-37.5,37.5S197.7,75.1,218.4,75.1z M218.4,18c10.8,0,19.5,8.8,19.5,19.5
	s-8.8,19.5-19.5,19.5s-19.5-8.8-19.5-19.5C198.9,26.8,207.7,18,218.4,18z M299.1,100.7v13.9c0,5-4,9-9,9s-9-4-9-9v-4.9h-11.8
	c-5,0-9-4-9-9s4-9,9-9H290C295,91.6,299.1,95.7,299.1,100.7z M105.6,109.7c-25.3,0-33,27.9-34.8,36.4l-17.2,83.6
	c-0.9,4.3-4.6,7.2-8.8,7.2c-0.6,0-1.2-0.1-1.8-0.2c-4.9-1-8-5.8-7-10.6l17.2-83.6c6.4-31.3,26.5-50.8,52.4-50.8h56.7c5,0,9,4,9,9
	s-4,9-9,9L105.6,109.7L105.6,109.7z M230,325.8c0,0,0,0.1,0,0.1c0,1.4-0.3,2.8-0.9,4c-1.5,3-4.5,5-8.1,5c-0.1,0-0.1,0-0.2,0h-24.1
	c-5,0-9-4-9-9s4-9,9-9H212V149.3c0-5,4-9,9-9s9,4,9,9V325.8z M285.2,226.1c1,4.9-2.1,9.6-7,10.6c-0.6,0.1-1.2,0.2-1.8,0.2
	c-4.2,0-7.9-2.9-8.8-7.2l-17.2-83.6c-1.8-8.5-9.4-36.4-34.8-36.4c-16.7,0-25.6,13.9-35.2,38L152,218.3c-1.9,4.6-7.1,6.9-11.7,5
	c-4.6-1.9-6.8-7.1-5-11.7l28.4-70.6c7.4-18.4,19.8-49.2,51.9-49.2c25.9,0,46,19.5,52.4,50.8L285.2,226.1z M133.6,325.9c0,5-4,9-9,9
	h-24.1c-0.1,0-0.1,0-0.2,0c-5,0-9-4-9-9V149.3c0-5,4-9,9-9s9,4,9,9v167.6h15.3C129.5,316.9,133.6,321,133.6,325.9z"/>
</svg>
