<?xml version="1.0" encoding="iso-8859-1"?>
<!-- Generator: Adobe Illustrator 17.1.0, SVG Export Plug-In . SVG Version: 6.00 Build 0)  -->
<!DOCTYPE svg PUBLIC "-//W3C//DTD SVG 1.1//EN" "http://www.w3.org/Graphics/SVG/1.1/DTD/svg11.dtd">
<svg xmlns="http://www.w3.org/2000/svg" xmlns:xlink="http://www.w3.org/1999/xlink" version="1.1" id="Capa_1" x="0px" y="0px" viewBox="0 0 367.027 367.027" style="enable-background:new 0 0 367.027 367.027;" xml:space="preserve" width="512px" height="512px">
<path d="M215.274,336.422c-3.2,3.802-8.876,4.294-12.681,1.095c-4.397-3.698-9.583-5.496-15.854-5.496h-18.197  c-6.272,0-11.457,1.797-15.85,5.494c-1.688,1.421-3.745,2.114-5.791,2.114c-2.564,0-5.11-1.09-6.891-3.205  c-3.2-3.803-2.712-9.48,1.091-12.681c7.666-6.451,16.898-9.723,27.44-9.723h18.197c10.539,0,19.771,3.271,27.44,9.721  C217.983,326.94,218.473,332.618,215.274,336.422z M47.241,94.715c-4.971,0-9,4.029-9,9v2.329c0,4.971,4.029,9,9,9s9-4.029,9-9  v-2.329C56.241,98.744,52.212,94.715,47.241,94.715z M146.337,270.079c0-17.261,14.042-31.304,31.303-31.304  s31.303,14.043,31.303,31.304s-14.042,31.303-31.303,31.303S146.337,287.34,146.337,270.079z M164.337,270.079  c0,7.335,5.968,13.303,13.303,13.303s13.303-5.968,13.303-13.303c0-7.336-5.968-13.304-13.303-13.304  S164.337,262.743,164.337,270.079z M124.864,94.715c-4.971,0-9,4.029-9,9v2.329c0,4.971,4.029,9,9,9s9-4.029,9-9v-2.329  C133.864,98.744,129.835,94.715,124.864,94.715z M134.495,45.396h98.038c4.971,0,9-4.029,9-9s-4.029-9-9-9h-98.038  c-4.971,0-9,4.029-9,9S129.524,45.396,134.495,45.396z M111.979,323.742c-7.667-6.451-16.899-9.722-27.439-9.722H66.341  c-10.541,0-19.772,3.271-27.438,9.723c-3.803,3.2-4.292,8.878-1.091,12.681c1.78,2.115,4.326,3.205,6.89,3.205  c2.046,0,4.103-0.693,5.791-2.114c4.393-3.697,9.577-5.494,15.848-5.494h18.199c6.271,0,11.456,1.798,15.851,5.495  c3.803,3.199,9.48,2.712,12.681-1.093C116.272,332.619,115.783,326.941,111.979,323.742z M75.44,238.775  c17.262,0,31.305,14.043,31.305,31.304s-14.043,31.303-31.305,31.303c-17.26,0-31.301-14.042-31.301-31.303  S58.18,238.775,75.44,238.775z M75.44,256.775c-7.334,0-13.301,5.968-13.301,13.304c0,7.335,5.967,13.303,13.301,13.303  c7.336,0,13.305-5.968,13.305-13.303C88.745,262.743,82.776,256.775,75.44,256.775z M95.053,106.044v-2.329c0-4.971-4.029-9-9-9  s-9,4.029-9,9v2.329c0,4.971,4.029,9,9,9S95.053,111.015,95.053,106.044z M280.108,115.044c4.971,0,9-4.029,9-9v-2.329  c0-4.971-4.029-9-9-9s-9,4.029-9,9v2.329C271.108,111.015,275.138,115.044,280.108,115.044z M163.674,115.044c4.971,0,9-4.029,9-9  v-2.329c0-4.971-4.029-9-9-9s-9,4.029-9,9v2.329C154.674,111.015,158.703,115.044,163.674,115.044z M309.916,295.957  c0,4.971,4.029,9,9,9s9-4.029,9-9v-2.329c0-4.971-4.029-9-9-9s-9,4.029-9,9V295.957z M318.916,115.044c4.971,0,9-4.029,9-9v-2.329  c0-4.971-4.029-9-9-9s-9,4.029-9,9v2.329C309.916,111.015,313.945,115.044,318.916,115.044z M271.108,295.957c0,4.971,4.029,9,9,9  s9-4.029,9-9v-2.329c0-4.971-4.029-9-9-9s-9,4.029-9,9V295.957z M358.027,60.043H9c-4.971,0-9,4.029-9,9v261.588  c0,4.971,4.029,9,9,9s9-4.029,9-9V78.043h331.027v243.588h-94.235c-4.971,0-9,4.029-9,9s4.029,9,9,9h103.235c4.971,0,9-4.029,9-9  V69.043C367.027,64.072,362.998,60.043,358.027,60.043z M250.295,295.957v-2.329c0-4.971-4.029-9-9-9s-9,4.029-9,9v2.329  c0,4.971,4.029,9,9,9S250.295,300.928,250.295,295.957z M211.487,106.044v-2.329c0-4.971-4.029-9-9-9s-9,4.029-9,9v2.329  c0,4.971,4.029,9,9,9S211.487,111.015,211.487,106.044z M241.295,115.044c4.971,0,9-4.029,9-9v-2.329c0-4.971-4.029-9-9-9  s-9,4.029-9,9v2.329C232.295,111.015,236.324,115.044,241.295,115.044z" fill="#FFFFFF"/>
<g>
</g>
<g>
</g>
<g>
</g>
<g>
</g>
<g>
</g>
<g>
</g>
<g>
</g>
<g>
</g>
<g>
</g>
<g>
</g>
<g>
</g>
<g>
</g>
<g>
</g>
<g>
</g>
<g>
</g>
</svg>
